<svg width="150" height="50" fill="none" xmlns="http://www.w3.org/2000/svg"><path d="M65.419 12.33a18.937 18.937 0 00-6.534-1.128c-7.191 0-12.273 3.634-12.304 8.834-.06 3.822 3.602 5.976 6.37 7.265 2.843 1.319 3.794 2.14 3.78 3.31-.014 1.803-2.273 2.607-4.351 2.607-2.888 0-4.455-.394-6.87-1.406l-.898-.425-1.024 6.008c1.758.717 4.908 1.347 8.16 1.406 7.66 0 12.655-3.603 12.712-9.158.059-3.046-1.902-5.357-6.078-7.264-2.52-1.23-4.098-2.067-4.098-3.327 0-1.114 1.347-2.284 4.16-2.284a13.398 13.398 0 015.448 1.01l.689.306 1.01-5.785-.172.03zm18.694-.63h-5.625c-1.757 0-3.062.47-3.839 2.213L63.84 38.418h7.646l1.542-4.013 9.329.014c.233.937.891 3.997.891 3.997H90L84.113 11.7zm-47.888-.22h7.282L38.95 38.21h-7.28l4.556-26.744v.014zM17.71 26.2l.746 3.722L25.588 11.7h7.72L21.822 38.373h-7.686l-6.3-22.587a1.426 1.426 0 00-.69-.891A30.756 30.756 0 000 12.243l.087-.56h11.748c1.583.059 2.872.56 3.31 2.258l2.565 12.274v-.014zm57.392 2.74l2.917-7.484c-.045.07.599-1.538.964-2.55l.498 2.297 1.688 7.72h-6.067v.017z" fill="#262D36"/><path d="M114.583 39.583c8.054 0 14.584-6.529 14.584-14.583s-6.53-14.583-14.584-14.583C106.529 10.417 100 16.946 100 25s6.529 14.583 14.583 14.583z" fill="#EA001B"/><path d="M135.417 39.583C143.471 39.583 150 33.054 150 25s-6.529-14.583-14.583-14.583S120.833 16.946 120.833 25s6.53 14.583 14.584 14.583z" fill="#FFA200" fill-opacity=".8"/></svg>