<svg width="70" height="71" fill="none" xmlns="http://www.w3.org/2000/svg"><path d="M32.783 32.474c6.937 0 12.56-5.623 12.56-12.56 0-6.938-5.623-12.562-12.56-12.562-6.938 0-12.561 5.624-12.561 12.561 0 6.938 5.623 12.561 12.56 12.561zm8.05 22.964h13.61v2.722h-13.61v-2.722z" fill="#fff"/><path d="M29.166 59.327v5.833a1.944 1.944 0 001.945 1.945h33.055a1.944 1.944 0 001.945-1.945V45.716a1.945 1.945 0 00-1.945-1.945H50.555v-2.858a1.944 1.944 0 10-3.889 0v2.858h-3.889v-6.96a62.452 62.452 0 00-9.994-.817 50.557 50.557 0 00-21.39 4.647 6.378 6.378 0 00-3.655 5.833v12.853h21.428zm33.056 3.889H33.055V47.66h13.611v.817a1.944 1.944 0 103.889 0v-.817h11.667v15.556z" fill="#fff"/></svg>