<svg width="70" height="71" fill="none" xmlns="http://www.w3.org/2000/svg"><path d="M35 33.077A14.583 14.583 0 0149.583 47.66v17.5H20.417v-17.5A14.583 14.583 0 0135 33.077zm-19.577 8.767a20.365 20.365 0 00-.816 4.813l-.024 1.003v17.5h-8.75V52.035a10.208 10.208 0 019.097-10.15l.496-.04h-.003zm39.154 0a10.211 10.211 0 019.59 10.191V65.16h-8.75v-17.5a20.38 20.38 0 00-.84-5.816zM16.042 24.327a7.292 7.292 0 110 14.583 7.292 7.292 0 010-14.583zm37.916 0a7.291 7.291 0 110 14.583 7.291 7.291 0 010-14.583zM35 6.827a11.667 11.667 0 110 23.333 11.667 11.667 0 010-23.333z" fill="#fff"/></svg>